<?xml version="1.0" encoding="utf-8"?>
<!-- Uploaded to: SVG Repo, www.svgrepo.com, Generator: SVG Repo Mixer Tools -->
<svg fill="#fff"  viewBox="-7 0 32 32" version="1.1" xmlns="http://www.w3.org/2000/svg">
<title>dots-h</title>
<path d="M13.28 16c0-1.36 1.12-2.48 2.48-2.48s2.48 1.12 2.48 2.48-1.12 2.48-2.48 2.48-2.48-1.12-2.48-2.48zM16.56 16c0-0.44-0.36-0.8-0.8-0.8s-0.8 0.36-0.8 0.8 0.36 0.8 0.8 0.8 0.8-0.36 0.8-0.8zM6.64 16c0-1.36 1.12-2.48 2.48-2.48s2.48 1.12 2.48 2.48-1.12 2.48-2.48 2.48-2.48-1.12-2.48-2.48zM9.92 16c0-0.44-0.36-0.8-0.8-0.8s-0.8 0.36-0.8 0.8 0.36 0.8 0.8 0.8 0.8-0.36 0.8-0.8zM0 16c0-1.36 1.12-2.48 2.48-2.48s2.48 1.12 2.48 2.48-1.12 2.48-2.48 2.48-2.48-1.12-2.48-2.48zM3.28 16c0-0.44-0.36-0.8-0.8-0.8s-0.8 0.36-0.8 0.8 0.36 0.8 0.8 0.8 0.8-0.36 0.8-0.8z"></path>
</svg>